<svg width="53" height="53" viewBox="0 0 53 53" fill="none" xmlns="http://www.w3.org/2000/svg">
<path d="M3.3125 24.8438H49.6875" stroke="#FFFAE6" stroke-width="2" stroke-linecap="round" stroke-linejoin="round"/>
<path d="M46.375 38.0938V43.0625C46.375 43.5018 46.2005 43.923 45.8899 44.2336C45.5793 44.5443 45.158 44.7188 44.7188 44.7188H39.75C39.3107 44.7188 38.8895 44.5443 38.5789 44.2336C38.2682 43.923 38.0938 43.5018 38.0938 43.0625V38.0938" stroke="#FFFAE6" stroke-width="2" stroke-linecap="round" stroke-linejoin="round"/>
<path d="M14.9062 38.0938V43.0625C14.9062 43.5018 14.7318 43.923 14.4211 44.2336C14.1105 44.5443 13.6893 44.7188 13.25 44.7188H8.28125C7.84199 44.7188 7.42071 44.5443 7.1101 44.2336C6.7995 43.923 6.625 43.5018 6.625 43.0625V38.0938" stroke="#FFFAE6" stroke-width="2" stroke-linecap="round" stroke-linejoin="round"/>
<path d="M13.25 31.4688H16.5625" stroke="#FFFAE6" stroke-width="2" stroke-linecap="round" stroke-linejoin="round"/>
<path d="M36.4375 31.4688H39.75" stroke="#FFFAE6" stroke-width="2" stroke-linecap="round" stroke-linejoin="round"/>
<path d="M46.375 24.8438L40.1871 10.9211C40.057 10.6283 39.8448 10.3796 39.5762 10.205C39.3075 10.0304 38.994 9.9375 38.6736 9.9375H14.3264C14.006 9.9375 13.6925 10.0304 13.4238 10.205C13.1552 10.3796 12.943 10.6283 12.8129 10.9211L6.625 24.8438V38.0938H46.375V24.8438Z" stroke="#FFFAE6" stroke-width="2" stroke-linecap="round" stroke-linejoin="round"/>
</svg>
