<svg width="53" height="53" viewBox="0 0 53 53" fill="none" xmlns="http://www.w3.org/2000/svg">
<path d="M19.875 33.125H8.28125C7.84199 33.125 7.42071 32.9505 7.1101 32.6399C6.7995 32.3293 6.625 31.908 6.625 31.4688V21.5312C6.625 21.092 6.7995 20.6707 7.1101 20.3601C7.42071 20.0495 7.84199 19.875 8.28125 19.875H19.875V8.28125C19.875 7.84199 20.0495 7.42071 20.3601 7.1101C20.6707 6.7995 21.092 6.625 21.5312 6.625H31.4688C31.908 6.625 32.3293 6.7995 32.6399 7.1101C32.9505 7.42071 33.125 7.84199 33.125 8.28125V19.875H44.7188C45.158 19.875 45.5793 20.0495 45.8899 20.3601C46.2005 20.6707 46.375 21.092 46.375 21.5312V31.4688C46.375 31.908 46.2005 32.3293 45.8899 32.6399C45.5793 32.9505 45.158 33.125 44.7188 33.125H33.125V44.7188C33.125 45.158 32.9505 45.5793 32.6399 45.8899C32.3293 46.2005 31.908 46.375 31.4688 46.375H21.5312C21.092 46.375 20.6707 46.2005 20.3601 45.8899C20.0495 45.5793 19.875 45.158 19.875 44.7188V33.125Z" stroke="#FFFAE6" stroke-width="2" stroke-linecap="round" stroke-linejoin="round"/>
</svg>
