<svg width="53" height="53" viewBox="0 0 53 53" fill="none" xmlns="http://www.w3.org/2000/svg">
<path d="M9.10938 26.5H43.8906" stroke="#FFFAE6" stroke-width="2" stroke-linecap="round" stroke-linejoin="round"/>
<path d="M9.10938 14.9062H43.8906" stroke="#FFFAE6" stroke-width="2" stroke-linecap="round" stroke-linejoin="round"/>
<path d="M19.875 43.0625L14.9062 49.6875" stroke="#FFFAE6" stroke-width="2" stroke-linecap="round" stroke-linejoin="round"/>
<path d="M33.125 43.0625L38.0938 49.6875" stroke="#FFFAE6" stroke-width="2" stroke-linecap="round" stroke-linejoin="round"/>
<path d="M38.9219 6.625H14.0781C11.334 6.625 9.10938 8.84959 9.10938 11.5938V38.0938C9.10938 40.8379 11.334 43.0625 14.0781 43.0625H38.9219C41.666 43.0625 43.8906 40.8379 43.8906 38.0938V11.5938C43.8906 8.84959 41.666 6.625 38.9219 6.625Z" stroke="#FFFAE6" stroke-width="2" stroke-linecap="round" stroke-linejoin="round"/>
<path d="M26.5 14.9062V26.5" stroke="#FFFAE6" stroke-width="2" stroke-linecap="round" stroke-linejoin="round"/>
<path d="M17.3906 38.0938C18.7627 38.0938 19.875 36.9815 19.875 35.6094C19.875 34.2373 18.7627 33.125 17.3906 33.125C16.0185 33.125 14.9062 34.2373 14.9062 35.6094C14.9062 36.9815 16.0185 38.0938 17.3906 38.0938Z" fill="#FFFAE6"/>
<path d="M35.6094 38.0938C36.9815 38.0938 38.0938 36.9815 38.0938 35.6094C38.0938 34.2373 36.9815 33.125 35.6094 33.125C34.2373 33.125 33.125 34.2373 33.125 35.6094C33.125 36.9815 34.2373 38.0938 35.6094 38.0938Z" fill="#FFFAE6"/>
</svg>
